<mxfile host="app.diagrams.net" agent="Mozilla/5.0 (Windows NT 10.0; Win64; x64; rv:128.0) Gecko/20100101 Firefox/128.0" version="24.7.4">
  <diagram id="C5RBs43oDa-KdzZeNtuy" name="Page-1">
    <mxGraphModel dx="495" dy="597" grid="1" gridSize="10" guides="1" tooltips="1" connect="1" arrows="1" fold="1" page="1" pageScale="1" pageWidth="827" pageHeight="1169" math="0" shadow="0">
      <root>
        <mxCell id="WIyWlLk6GJQsqaUBKTNV-0" />
        <mxCell id="WIyWlLk6GJQsqaUBKTNV-1" parent="WIyWlLk6GJQsqaUBKTNV-0" />
        <mxCell id="7br7j0c2H_9cOm_8u2QU-13" value="" style="edgeStyle=none;curved=1;rounded=0;orthogonalLoop=1;jettySize=auto;html=1;fontSize=12;startSize=8;endSize=8;" edge="1" parent="WIyWlLk6GJQsqaUBKTNV-1" source="7br7j0c2H_9cOm_8u2QU-3" target="7br7j0c2H_9cOm_8u2QU-12">
          <mxGeometry relative="1" as="geometry" />
        </mxCell>
        <mxCell id="7br7j0c2H_9cOm_8u2QU-3" value="save_all_info" style="strokeWidth=2;html=1;shape=mxgraph.flowchart.terminator;whiteSpace=wrap;" vertex="1" parent="WIyWlLk6GJQsqaUBKTNV-1">
          <mxGeometry x="85" y="10" width="100" height="60" as="geometry" />
        </mxCell>
        <mxCell id="7br7j0c2H_9cOm_8u2QU-4" value="end" style="strokeWidth=2;html=1;shape=mxgraph.flowchart.terminator;whiteSpace=wrap;" vertex="1" parent="WIyWlLk6GJQsqaUBKTNV-1">
          <mxGeometry x="85" y="270" width="100" height="60" as="geometry" />
        </mxCell>
        <mxCell id="7br7j0c2H_9cOm_8u2QU-16" value="&lt;div&gt;no&lt;/div&gt;" style="edgeStyle=none;curved=1;rounded=0;orthogonalLoop=1;jettySize=auto;html=1;fontSize=12;startSize=8;endSize=8;" edge="1" parent="WIyWlLk6GJQsqaUBKTNV-1" source="7br7j0c2H_9cOm_8u2QU-12" target="7br7j0c2H_9cOm_8u2QU-4">
          <mxGeometry relative="1" as="geometry" />
        </mxCell>
        <mxCell id="7br7j0c2H_9cOm_8u2QU-18" value="yes" style="edgeStyle=none;curved=1;rounded=0;orthogonalLoop=1;jettySize=auto;html=1;fontSize=12;startSize=8;endSize=8;" edge="1" parent="WIyWlLk6GJQsqaUBKTNV-1" source="7br7j0c2H_9cOm_8u2QU-12" target="7br7j0c2H_9cOm_8u2QU-17">
          <mxGeometry relative="1" as="geometry" />
        </mxCell>
        <mxCell id="7br7j0c2H_9cOm_8u2QU-12" value="&lt;div&gt;is the save info&lt;/div&gt;&lt;div&gt;checkbox selected?&lt;/div&gt;" style="rhombus;whiteSpace=wrap;html=1;strokeWidth=2;" vertex="1" parent="WIyWlLk6GJQsqaUBKTNV-1">
          <mxGeometry x="60" y="110" width="150" height="80" as="geometry" />
        </mxCell>
        <mxCell id="7br7j0c2H_9cOm_8u2QU-20" value="" style="edgeStyle=none;curved=1;rounded=0;orthogonalLoop=1;jettySize=auto;html=1;fontSize=12;startSize=8;endSize=8;" edge="1" parent="WIyWlLk6GJQsqaUBKTNV-1" source="7br7j0c2H_9cOm_8u2QU-17" target="7br7j0c2H_9cOm_8u2QU-19">
          <mxGeometry relative="1" as="geometry" />
        </mxCell>
        <mxCell id="7br7j0c2H_9cOm_8u2QU-17" value="&lt;div&gt;make a dictionary called info that stores the input card information&lt;br&gt;&lt;/div&gt;" style="whiteSpace=wrap;html=1;strokeWidth=2;" vertex="1" parent="WIyWlLk6GJQsqaUBKTNV-1">
          <mxGeometry x="250" y="120" width="135" height="60" as="geometry" />
        </mxCell>
        <mxCell id="7br7j0c2H_9cOm_8u2QU-21" style="edgeStyle=none;curved=1;rounded=0;orthogonalLoop=1;jettySize=auto;html=1;fontSize=12;startSize=8;endSize=8;" edge="1" parent="WIyWlLk6GJQsqaUBKTNV-1" source="7br7j0c2H_9cOm_8u2QU-19">
          <mxGeometry relative="1" as="geometry">
            <mxPoint x="130" y="240" as="targetPoint" />
          </mxGeometry>
        </mxCell>
        <mxCell id="7br7j0c2H_9cOm_8u2QU-19" value="save_info(info)" style="shape=process;whiteSpace=wrap;html=1;backgroundOutline=1;strokeWidth=2;" vertex="1" parent="WIyWlLk6GJQsqaUBKTNV-1">
          <mxGeometry x="257.5" y="210" width="120" height="60" as="geometry" />
        </mxCell>
        <mxCell id="7br7j0c2H_9cOm_8u2QU-24" value="" style="edgeStyle=none;curved=1;rounded=0;orthogonalLoop=1;jettySize=auto;html=1;fontSize=12;startSize=8;endSize=8;" edge="1" parent="WIyWlLk6GJQsqaUBKTNV-1" source="7br7j0c2H_9cOm_8u2QU-22" target="7br7j0c2H_9cOm_8u2QU-23">
          <mxGeometry relative="1" as="geometry" />
        </mxCell>
        <mxCell id="7br7j0c2H_9cOm_8u2QU-22" value="&lt;div&gt;save_info&lt;/div&gt;&lt;div&gt;dictionary: card_info&lt;br&gt;&lt;/div&gt;" style="strokeWidth=2;html=1;shape=mxgraph.flowchart.terminator;whiteSpace=wrap;" vertex="1" parent="WIyWlLk6GJQsqaUBKTNV-1">
          <mxGeometry x="450" y="10" width="120" height="60" as="geometry" />
        </mxCell>
        <mxCell id="7br7j0c2H_9cOm_8u2QU-26" value="" style="edgeStyle=none;curved=1;rounded=0;orthogonalLoop=1;jettySize=auto;html=1;fontSize=12;startSize=8;endSize=8;" edge="1" parent="WIyWlLk6GJQsqaUBKTNV-1" source="7br7j0c2H_9cOm_8u2QU-23" target="7br7j0c2H_9cOm_8u2QU-25">
          <mxGeometry relative="1" as="geometry" />
        </mxCell>
        <mxCell id="7br7j0c2H_9cOm_8u2QU-23" value="open card_info json file" style="whiteSpace=wrap;html=1;strokeWidth=2;" vertex="1" parent="WIyWlLk6GJQsqaUBKTNV-1">
          <mxGeometry x="450" y="150" width="120" height="60" as="geometry" />
        </mxCell>
        <mxCell id="7br7j0c2H_9cOm_8u2QU-28" value="yes" style="edgeStyle=none;curved=1;rounded=0;orthogonalLoop=1;jettySize=auto;html=1;fontSize=12;startSize=8;endSize=8;" edge="1" parent="WIyWlLk6GJQsqaUBKTNV-1" source="7br7j0c2H_9cOm_8u2QU-25" target="7br7j0c2H_9cOm_8u2QU-27">
          <mxGeometry relative="1" as="geometry" />
        </mxCell>
        <mxCell id="7br7j0c2H_9cOm_8u2QU-30" value="" style="edgeStyle=none;curved=1;rounded=0;orthogonalLoop=1;jettySize=auto;html=1;fontSize=12;startSize=8;endSize=8;" edge="1" parent="WIyWlLk6GJQsqaUBKTNV-1" source="7br7j0c2H_9cOm_8u2QU-25" target="7br7j0c2H_9cOm_8u2QU-29">
          <mxGeometry relative="1" as="geometry" />
        </mxCell>
        <mxCell id="7br7j0c2H_9cOm_8u2QU-25" value="&lt;div&gt;file does not&lt;/div&gt;&lt;div&gt;exist error&lt;/div&gt;" style="rhombus;whiteSpace=wrap;html=1;strokeWidth=2;" vertex="1" parent="WIyWlLk6GJQsqaUBKTNV-1">
          <mxGeometry x="450" y="290" width="120" height="80" as="geometry" />
        </mxCell>
        <mxCell id="7br7j0c2H_9cOm_8u2QU-35" value="" style="edgeStyle=none;curved=1;rounded=0;orthogonalLoop=1;jettySize=auto;html=1;fontSize=12;startSize=8;endSize=8;" edge="1" parent="WIyWlLk6GJQsqaUBKTNV-1" source="7br7j0c2H_9cOm_8u2QU-27" target="7br7j0c2H_9cOm_8u2QU-34">
          <mxGeometry relative="1" as="geometry" />
        </mxCell>
        <mxCell id="7br7j0c2H_9cOm_8u2QU-27" value="set data as an empty list" style="whiteSpace=wrap;html=1;strokeWidth=2;" vertex="1" parent="WIyWlLk6GJQsqaUBKTNV-1">
          <mxGeometry x="450" y="500" width="120" height="60" as="geometry" />
        </mxCell>
        <mxCell id="7br7j0c2H_9cOm_8u2QU-32" value="" style="edgeStyle=none;curved=1;rounded=0;orthogonalLoop=1;jettySize=auto;html=1;fontSize=12;startSize=8;endSize=8;" edge="1" parent="WIyWlLk6GJQsqaUBKTNV-1" source="7br7j0c2H_9cOm_8u2QU-29" target="7br7j0c2H_9cOm_8u2QU-31">
          <mxGeometry relative="1" as="geometry" />
        </mxCell>
        <mxCell id="7br7j0c2H_9cOm_8u2QU-29" value="data is read from json file" style="whiteSpace=wrap;html=1;strokeWidth=2;" vertex="1" parent="WIyWlLk6GJQsqaUBKTNV-1">
          <mxGeometry x="690" y="300" width="120" height="60" as="geometry" />
        </mxCell>
        <mxCell id="7br7j0c2H_9cOm_8u2QU-33" value="yes" style="edgeStyle=none;curved=1;rounded=0;orthogonalLoop=1;jettySize=auto;html=1;fontSize=12;startSize=8;endSize=8;" edge="1" parent="WIyWlLk6GJQsqaUBKTNV-1" source="7br7j0c2H_9cOm_8u2QU-31">
          <mxGeometry relative="1" as="geometry">
            <mxPoint x="520" y="440" as="targetPoint" />
          </mxGeometry>
        </mxCell>
        <mxCell id="7br7j0c2H_9cOm_8u2QU-36" value="no" style="edgeStyle=orthogonalEdgeStyle;rounded=0;orthogonalLoop=1;jettySize=auto;html=1;fontSize=12;startSize=8;endSize=8;" edge="1" parent="WIyWlLk6GJQsqaUBKTNV-1" source="7br7j0c2H_9cOm_8u2QU-31">
          <mxGeometry relative="1" as="geometry">
            <mxPoint x="510" y="620" as="targetPoint" />
            <Array as="points">
              <mxPoint x="750" y="620" />
            </Array>
          </mxGeometry>
        </mxCell>
        <mxCell id="7br7j0c2H_9cOm_8u2QU-31" value="decoding error?" style="rhombus;whiteSpace=wrap;html=1;strokeWidth=2;" vertex="1" parent="WIyWlLk6GJQsqaUBKTNV-1">
          <mxGeometry x="690" y="400" width="120" height="80" as="geometry" />
        </mxCell>
        <mxCell id="7br7j0c2H_9cOm_8u2QU-38" value="" style="edgeStyle=none;curved=1;rounded=0;orthogonalLoop=1;jettySize=auto;html=1;fontSize=12;startSize=8;endSize=8;" edge="1" parent="WIyWlLk6GJQsqaUBKTNV-1" source="7br7j0c2H_9cOm_8u2QU-34" target="7br7j0c2H_9cOm_8u2QU-37">
          <mxGeometry relative="1" as="geometry" />
        </mxCell>
        <mxCell id="7br7j0c2H_9cOm_8u2QU-34" value="card_exists = False" style="whiteSpace=wrap;html=1;strokeWidth=2;" vertex="1" parent="WIyWlLk6GJQsqaUBKTNV-1">
          <mxGeometry x="450" y="680" width="120" height="60" as="geometry" />
        </mxCell>
        <mxCell id="7br7j0c2H_9cOm_8u2QU-40" value="" style="edgeStyle=none;curved=1;rounded=0;orthogonalLoop=1;jettySize=auto;html=1;fontSize=12;startSize=8;endSize=8;" edge="1" parent="WIyWlLk6GJQsqaUBKTNV-1" source="7br7j0c2H_9cOm_8u2QU-37" target="7br7j0c2H_9cOm_8u2QU-39">
          <mxGeometry relative="1" as="geometry" />
        </mxCell>
        <mxCell id="7br7j0c2H_9cOm_8u2QU-37" value="&lt;div&gt;i = 0&lt;/div&gt;&lt;div&gt;card = 0&lt;br&gt;&lt;/div&gt;" style="whiteSpace=wrap;html=1;strokeWidth=2;" vertex="1" parent="WIyWlLk6GJQsqaUBKTNV-1">
          <mxGeometry x="450" y="800" width="120" height="60" as="geometry" />
        </mxCell>
        <mxCell id="7br7j0c2H_9cOm_8u2QU-42" value="yes" style="edgeStyle=none;curved=1;rounded=0;orthogonalLoop=1;jettySize=auto;html=1;fontSize=12;startSize=8;endSize=8;" edge="1" parent="WIyWlLk6GJQsqaUBKTNV-1" source="7br7j0c2H_9cOm_8u2QU-39" target="7br7j0c2H_9cOm_8u2QU-41">
          <mxGeometry relative="1" as="geometry" />
        </mxCell>
        <mxCell id="7br7j0c2H_9cOm_8u2QU-49" value="no" style="edgeStyle=none;curved=1;rounded=0;orthogonalLoop=1;jettySize=auto;html=1;fontSize=12;startSize=8;endSize=8;" edge="1" parent="WIyWlLk6GJQsqaUBKTNV-1" source="7br7j0c2H_9cOm_8u2QU-39" target="7br7j0c2H_9cOm_8u2QU-48">
          <mxGeometry relative="1" as="geometry" />
        </mxCell>
        <mxCell id="7br7j0c2H_9cOm_8u2QU-39" value="is card in data" style="rhombus;whiteSpace=wrap;html=1;strokeWidth=2;" vertex="1" parent="WIyWlLk6GJQsqaUBKTNV-1">
          <mxGeometry x="450" y="1000" width="120" height="80" as="geometry" />
        </mxCell>
        <mxCell id="7br7j0c2H_9cOm_8u2QU-44" value="yes" style="edgeStyle=none;curved=1;rounded=0;orthogonalLoop=1;jettySize=auto;html=1;fontSize=12;startSize=8;endSize=8;" edge="1" parent="WIyWlLk6GJQsqaUBKTNV-1" source="7br7j0c2H_9cOm_8u2QU-41" target="7br7j0c2H_9cOm_8u2QU-43">
          <mxGeometry relative="1" as="geometry" />
        </mxCell>
        <mxCell id="7br7j0c2H_9cOm_8u2QU-46" value="no" style="edgeStyle=none;curved=1;rounded=0;orthogonalLoop=1;jettySize=auto;html=1;fontSize=12;startSize=8;endSize=8;" edge="1" parent="WIyWlLk6GJQsqaUBKTNV-1" source="7br7j0c2H_9cOm_8u2QU-41" target="7br7j0c2H_9cOm_8u2QU-45">
          <mxGeometry relative="1" as="geometry" />
        </mxCell>
        <mxCell id="7br7j0c2H_9cOm_8u2QU-41" value="&lt;div&gt;is card_type value&amp;nbsp;&lt;/div&gt;&lt;div&gt;in data teh same as the&lt;/div&gt;&lt;div&gt;card_type value in&lt;/div&gt;&lt;div&gt;card_info?&lt;/div&gt;" style="rhombus;whiteSpace=wrap;html=1;strokeWidth=2;" vertex="1" parent="WIyWlLk6GJQsqaUBKTNV-1">
          <mxGeometry x="640" y="980" width="180" height="120" as="geometry" />
        </mxCell>
        <mxCell id="7br7j0c2H_9cOm_8u2QU-102" value="" style="edgeStyle=none;curved=1;rounded=0;orthogonalLoop=1;jettySize=auto;html=1;fontSize=12;startSize=8;endSize=8;" edge="1" parent="WIyWlLk6GJQsqaUBKTNV-1" source="7br7j0c2H_9cOm_8u2QU-43" target="7br7j0c2H_9cOm_8u2QU-101">
          <mxGeometry relative="1" as="geometry" />
        </mxCell>
        <mxCell id="7br7j0c2H_9cOm_8u2QU-43" value="data at i replaces with new card_info" style="whiteSpace=wrap;html=1;strokeWidth=2;" vertex="1" parent="WIyWlLk6GJQsqaUBKTNV-1">
          <mxGeometry x="670" y="1160" width="120" height="60" as="geometry" />
        </mxCell>
        <mxCell id="7br7j0c2H_9cOm_8u2QU-47" style="edgeStyle=none;curved=1;rounded=0;orthogonalLoop=1;jettySize=auto;html=1;fontSize=12;startSize=8;endSize=8;" edge="1" parent="WIyWlLk6GJQsqaUBKTNV-1" source="7br7j0c2H_9cOm_8u2QU-45">
          <mxGeometry relative="1" as="geometry">
            <mxPoint x="510" y="900" as="targetPoint" />
          </mxGeometry>
        </mxCell>
        <mxCell id="7br7j0c2H_9cOm_8u2QU-45" value="incremend card and i by 1" style="whiteSpace=wrap;html=1;strokeWidth=2;" vertex="1" parent="WIyWlLk6GJQsqaUBKTNV-1">
          <mxGeometry x="670" y="870" width="120" height="60" as="geometry" />
        </mxCell>
        <mxCell id="7br7j0c2H_9cOm_8u2QU-52" value="no" style="edgeStyle=none;curved=1;rounded=0;orthogonalLoop=1;jettySize=auto;html=1;fontSize=12;startSize=8;endSize=8;" edge="1" parent="WIyWlLk6GJQsqaUBKTNV-1" source="7br7j0c2H_9cOm_8u2QU-48" target="7br7j0c2H_9cOm_8u2QU-51">
          <mxGeometry relative="1" as="geometry" />
        </mxCell>
        <mxCell id="7br7j0c2H_9cOm_8u2QU-54" value="yes" style="edgeStyle=none;curved=1;rounded=0;orthogonalLoop=1;jettySize=auto;html=1;fontSize=12;startSize=8;endSize=8;" edge="1" parent="WIyWlLk6GJQsqaUBKTNV-1" source="7br7j0c2H_9cOm_8u2QU-48" target="7br7j0c2H_9cOm_8u2QU-53">
          <mxGeometry relative="1" as="geometry" />
        </mxCell>
        <mxCell id="7br7j0c2H_9cOm_8u2QU-48" value="card_exists?" style="rhombus;whiteSpace=wrap;html=1;strokeWidth=2;" vertex="1" parent="WIyWlLk6GJQsqaUBKTNV-1">
          <mxGeometry x="450" y="1240" width="120" height="80" as="geometry" />
        </mxCell>
        <mxCell id="7br7j0c2H_9cOm_8u2QU-55" style="edgeStyle=elbowEdgeStyle;rounded=0;orthogonalLoop=1;jettySize=auto;html=1;fontSize=12;startSize=8;endSize=8;" edge="1" parent="WIyWlLk6GJQsqaUBKTNV-1" source="7br7j0c2H_9cOm_8u2QU-51">
          <mxGeometry relative="1" as="geometry">
            <mxPoint x="510" y="1340" as="targetPoint" />
            <Array as="points">
              <mxPoint x="730" y="1310" />
            </Array>
          </mxGeometry>
        </mxCell>
        <mxCell id="7br7j0c2H_9cOm_8u2QU-51" value="apped card_info to end of data" style="whiteSpace=wrap;html=1;strokeWidth=2;" vertex="1" parent="WIyWlLk6GJQsqaUBKTNV-1">
          <mxGeometry x="670" y="1250" width="120" height="60" as="geometry" />
        </mxCell>
        <mxCell id="7br7j0c2H_9cOm_8u2QU-57" value="" style="edgeStyle=none;curved=1;rounded=0;orthogonalLoop=1;jettySize=auto;html=1;fontSize=12;startSize=8;endSize=8;" edge="1" parent="WIyWlLk6GJQsqaUBKTNV-1" source="7br7j0c2H_9cOm_8u2QU-53" target="7br7j0c2H_9cOm_8u2QU-56">
          <mxGeometry relative="1" as="geometry" />
        </mxCell>
        <mxCell id="7br7j0c2H_9cOm_8u2QU-53" value="&lt;div&gt;open card_info.json&lt;/div&gt;&lt;div&gt;or create it if it doesnt exist&lt;br&gt;&lt;/div&gt;" style="whiteSpace=wrap;html=1;strokeWidth=2;" vertex="1" parent="WIyWlLk6GJQsqaUBKTNV-1">
          <mxGeometry x="450" y="1390" width="120" height="60" as="geometry" />
        </mxCell>
        <mxCell id="7br7j0c2H_9cOm_8u2QU-59" value="" style="edgeStyle=none;curved=1;rounded=0;orthogonalLoop=1;jettySize=auto;html=1;fontSize=12;startSize=8;endSize=8;" edge="1" parent="WIyWlLk6GJQsqaUBKTNV-1" source="7br7j0c2H_9cOm_8u2QU-56" target="7br7j0c2H_9cOm_8u2QU-58">
          <mxGeometry relative="1" as="geometry" />
        </mxCell>
        <mxCell id="7br7j0c2H_9cOm_8u2QU-56" value="write data to file with indent formatting" style="whiteSpace=wrap;html=1;strokeWidth=2;" vertex="1" parent="WIyWlLk6GJQsqaUBKTNV-1">
          <mxGeometry x="450" y="1480" width="120" height="60" as="geometry" />
        </mxCell>
        <mxCell id="7br7j0c2H_9cOm_8u2QU-58" value="end" style="strokeWidth=2;html=1;shape=mxgraph.flowchart.terminator;whiteSpace=wrap;" vertex="1" parent="WIyWlLk6GJQsqaUBKTNV-1">
          <mxGeometry x="460" y="1580" width="100" height="60" as="geometry" />
        </mxCell>
        <mxCell id="7br7j0c2H_9cOm_8u2QU-60" value="" style="edgeStyle=none;curved=1;rounded=0;orthogonalLoop=1;jettySize=auto;html=1;fontSize=12;startSize=8;endSize=8;" edge="1" parent="WIyWlLk6GJQsqaUBKTNV-1" source="7br7j0c2H_9cOm_8u2QU-61" target="7br7j0c2H_9cOm_8u2QU-63">
          <mxGeometry relative="1" as="geometry" />
        </mxCell>
        <mxCell id="7br7j0c2H_9cOm_8u2QU-61" value="&lt;div&gt;get_card_info&lt;/div&gt;&lt;div&gt;string: info&lt;br&gt;&lt;/div&gt;" style="strokeWidth=2;html=1;shape=mxgraph.flowchart.terminator;whiteSpace=wrap;" vertex="1" parent="WIyWlLk6GJQsqaUBKTNV-1">
          <mxGeometry x="7.5" y="375" width="120" height="60" as="geometry" />
        </mxCell>
        <mxCell id="7br7j0c2H_9cOm_8u2QU-62" value="" style="edgeStyle=none;curved=1;rounded=0;orthogonalLoop=1;jettySize=auto;html=1;fontSize=12;startSize=8;endSize=8;" edge="1" parent="WIyWlLk6GJQsqaUBKTNV-1" source="7br7j0c2H_9cOm_8u2QU-63" target="7br7j0c2H_9cOm_8u2QU-66">
          <mxGeometry relative="1" as="geometry" />
        </mxCell>
        <mxCell id="7br7j0c2H_9cOm_8u2QU-63" value="open card_info json file" style="whiteSpace=wrap;html=1;strokeWidth=2;" vertex="1" parent="WIyWlLk6GJQsqaUBKTNV-1">
          <mxGeometry x="7.5" y="515" width="120" height="60" as="geometry" />
        </mxCell>
        <mxCell id="7br7j0c2H_9cOm_8u2QU-64" value="yes" style="edgeStyle=none;curved=1;rounded=0;orthogonalLoop=1;jettySize=auto;html=1;fontSize=12;startSize=8;endSize=8;" edge="1" parent="WIyWlLk6GJQsqaUBKTNV-1" source="7br7j0c2H_9cOm_8u2QU-66" target="7br7j0c2H_9cOm_8u2QU-68">
          <mxGeometry relative="1" as="geometry" />
        </mxCell>
        <mxCell id="7br7j0c2H_9cOm_8u2QU-65" value="" style="edgeStyle=none;curved=1;rounded=0;orthogonalLoop=1;jettySize=auto;html=1;fontSize=12;startSize=8;endSize=8;" edge="1" parent="WIyWlLk6GJQsqaUBKTNV-1" source="7br7j0c2H_9cOm_8u2QU-66" target="7br7j0c2H_9cOm_8u2QU-70">
          <mxGeometry relative="1" as="geometry" />
        </mxCell>
        <mxCell id="7br7j0c2H_9cOm_8u2QU-66" value="&lt;div&gt;file does not&lt;/div&gt;&lt;div&gt;exist error&lt;/div&gt;" style="rhombus;whiteSpace=wrap;html=1;strokeWidth=2;" vertex="1" parent="WIyWlLk6GJQsqaUBKTNV-1">
          <mxGeometry x="7.5" y="655" width="120" height="80" as="geometry" />
        </mxCell>
        <mxCell id="7br7j0c2H_9cOm_8u2QU-67" value="" style="edgeStyle=none;curved=1;rounded=0;orthogonalLoop=1;jettySize=auto;html=1;fontSize=12;startSize=8;endSize=8;" edge="1" parent="WIyWlLk6GJQsqaUBKTNV-1" source="7br7j0c2H_9cOm_8u2QU-68" target="7br7j0c2H_9cOm_8u2QU-75">
          <mxGeometry relative="1" as="geometry" />
        </mxCell>
        <mxCell id="7br7j0c2H_9cOm_8u2QU-68" value="set data as an empty list" style="whiteSpace=wrap;html=1;strokeWidth=2;" vertex="1" parent="WIyWlLk6GJQsqaUBKTNV-1">
          <mxGeometry x="7.5" y="865" width="120" height="60" as="geometry" />
        </mxCell>
        <mxCell id="7br7j0c2H_9cOm_8u2QU-69" value="" style="edgeStyle=none;curved=1;rounded=0;orthogonalLoop=1;jettySize=auto;html=1;fontSize=12;startSize=8;endSize=8;" edge="1" parent="WIyWlLk6GJQsqaUBKTNV-1" source="7br7j0c2H_9cOm_8u2QU-70" target="7br7j0c2H_9cOm_8u2QU-73">
          <mxGeometry relative="1" as="geometry" />
        </mxCell>
        <mxCell id="7br7j0c2H_9cOm_8u2QU-70" value="data is read from json file" style="whiteSpace=wrap;html=1;strokeWidth=2;" vertex="1" parent="WIyWlLk6GJQsqaUBKTNV-1">
          <mxGeometry x="247.5" y="665" width="120" height="60" as="geometry" />
        </mxCell>
        <mxCell id="7br7j0c2H_9cOm_8u2QU-71" value="yes" style="edgeStyle=none;curved=1;rounded=0;orthogonalLoop=1;jettySize=auto;html=1;fontSize=12;startSize=8;endSize=8;" edge="1" parent="WIyWlLk6GJQsqaUBKTNV-1" source="7br7j0c2H_9cOm_8u2QU-73">
          <mxGeometry relative="1" as="geometry">
            <mxPoint x="77.5" y="805" as="targetPoint" />
          </mxGeometry>
        </mxCell>
        <mxCell id="7br7j0c2H_9cOm_8u2QU-72" value="no" style="edgeStyle=orthogonalEdgeStyle;rounded=0;orthogonalLoop=1;jettySize=auto;html=1;fontSize=12;startSize=8;endSize=8;" edge="1" parent="WIyWlLk6GJQsqaUBKTNV-1" source="7br7j0c2H_9cOm_8u2QU-73">
          <mxGeometry relative="1" as="geometry">
            <mxPoint x="67.5" y="985" as="targetPoint" />
            <Array as="points">
              <mxPoint x="307.5" y="985" />
            </Array>
          </mxGeometry>
        </mxCell>
        <mxCell id="7br7j0c2H_9cOm_8u2QU-73" value="decoding error?" style="rhombus;whiteSpace=wrap;html=1;strokeWidth=2;" vertex="1" parent="WIyWlLk6GJQsqaUBKTNV-1">
          <mxGeometry x="247.5" y="765" width="120" height="80" as="geometry" />
        </mxCell>
        <mxCell id="7br7j0c2H_9cOm_8u2QU-99" value="" style="edgeStyle=none;curved=1;rounded=0;orthogonalLoop=1;jettySize=auto;html=1;fontSize=12;startSize=8;endSize=8;" edge="1" parent="WIyWlLk6GJQsqaUBKTNV-1" source="7br7j0c2H_9cOm_8u2QU-75" target="7br7j0c2H_9cOm_8u2QU-98">
          <mxGeometry relative="1" as="geometry" />
        </mxCell>
        <mxCell id="7br7j0c2H_9cOm_8u2QU-75" value="card_exists = False" style="whiteSpace=wrap;html=1;strokeWidth=2;" vertex="1" parent="WIyWlLk6GJQsqaUBKTNV-1">
          <mxGeometry x="7.5" y="1045" width="120" height="60" as="geometry" />
        </mxCell>
        <mxCell id="7br7j0c2H_9cOm_8u2QU-76" value="" style="edgeStyle=none;curved=1;rounded=0;orthogonalLoop=1;jettySize=auto;html=1;fontSize=12;startSize=8;endSize=8;" edge="1" parent="WIyWlLk6GJQsqaUBKTNV-1" source="7br7j0c2H_9cOm_8u2QU-77" target="7br7j0c2H_9cOm_8u2QU-80">
          <mxGeometry relative="1" as="geometry" />
        </mxCell>
        <mxCell id="7br7j0c2H_9cOm_8u2QU-77" value="&lt;div&gt;i = 0&lt;/div&gt;&lt;div&gt;card = 0&lt;br&gt;&lt;/div&gt;" style="whiteSpace=wrap;html=1;strokeWidth=2;" vertex="1" parent="WIyWlLk6GJQsqaUBKTNV-1">
          <mxGeometry x="7.5" y="1480" width="120" height="60" as="geometry" />
        </mxCell>
        <mxCell id="7br7j0c2H_9cOm_8u2QU-78" value="yes" style="edgeStyle=none;curved=1;rounded=0;orthogonalLoop=1;jettySize=auto;html=1;fontSize=12;startSize=8;endSize=8;" edge="1" parent="WIyWlLk6GJQsqaUBKTNV-1" source="7br7j0c2H_9cOm_8u2QU-80" target="7br7j0c2H_9cOm_8u2QU-83">
          <mxGeometry relative="1" as="geometry" />
        </mxCell>
        <mxCell id="7br7j0c2H_9cOm_8u2QU-79" value="no" style="edgeStyle=none;curved=1;rounded=0;orthogonalLoop=1;jettySize=auto;html=1;fontSize=12;startSize=8;endSize=8;entryX=0.5;entryY=0;entryDx=0;entryDy=0;" edge="1" parent="WIyWlLk6GJQsqaUBKTNV-1" source="7br7j0c2H_9cOm_8u2QU-80" target="7br7j0c2H_9cOm_8u2QU-105">
          <mxGeometry relative="1" as="geometry">
            <mxPoint x="68" y="1950" as="targetPoint" />
          </mxGeometry>
        </mxCell>
        <mxCell id="7br7j0c2H_9cOm_8u2QU-80" value="is card in data" style="rhombus;whiteSpace=wrap;html=1;strokeWidth=2;" vertex="1" parent="WIyWlLk6GJQsqaUBKTNV-1">
          <mxGeometry x="7.5" y="1680" width="120" height="80" as="geometry" />
        </mxCell>
        <mxCell id="7br7j0c2H_9cOm_8u2QU-81" value="yes" style="edgeStyle=none;curved=1;rounded=0;orthogonalLoop=1;jettySize=auto;html=1;fontSize=12;startSize=8;endSize=8;" edge="1" parent="WIyWlLk6GJQsqaUBKTNV-1" source="7br7j0c2H_9cOm_8u2QU-83" target="7br7j0c2H_9cOm_8u2QU-85">
          <mxGeometry relative="1" as="geometry" />
        </mxCell>
        <mxCell id="7br7j0c2H_9cOm_8u2QU-82" value="no" style="edgeStyle=none;curved=1;rounded=0;orthogonalLoop=1;jettySize=auto;html=1;fontSize=12;startSize=8;endSize=8;" edge="1" parent="WIyWlLk6GJQsqaUBKTNV-1" source="7br7j0c2H_9cOm_8u2QU-83" target="7br7j0c2H_9cOm_8u2QU-87">
          <mxGeometry relative="1" as="geometry" />
        </mxCell>
        <mxCell id="7br7j0c2H_9cOm_8u2QU-83" value="&lt;div&gt;is card_type value&amp;nbsp;&lt;/div&gt;&lt;div&gt;in data teh same as the&lt;/div&gt;&lt;div&gt;card_type value in&lt;/div&gt;&lt;div&gt;card_info?&lt;/div&gt;" style="rhombus;whiteSpace=wrap;html=1;strokeWidth=2;" vertex="1" parent="WIyWlLk6GJQsqaUBKTNV-1">
          <mxGeometry x="197.5" y="1660" width="180" height="120" as="geometry" />
        </mxCell>
        <mxCell id="7br7j0c2H_9cOm_8u2QU-84" style="edgeStyle=none;curved=1;rounded=0;orthogonalLoop=1;jettySize=auto;html=1;fontSize=12;startSize=8;endSize=8;" edge="1" parent="WIyWlLk6GJQsqaUBKTNV-1" source="7br7j0c2H_9cOm_8u2QU-85">
          <mxGeometry relative="1" as="geometry">
            <mxPoint x="67.5" y="1870" as="targetPoint" />
          </mxGeometry>
        </mxCell>
        <mxCell id="7br7j0c2H_9cOm_8u2QU-85" value="card_exists = True" style="whiteSpace=wrap;html=1;strokeWidth=2;" vertex="1" parent="WIyWlLk6GJQsqaUBKTNV-1">
          <mxGeometry x="227.5" y="1840" width="120" height="60" as="geometry" />
        </mxCell>
        <mxCell id="7br7j0c2H_9cOm_8u2QU-86" style="edgeStyle=none;curved=1;rounded=0;orthogonalLoop=1;jettySize=auto;html=1;fontSize=12;startSize=8;endSize=8;" edge="1" parent="WIyWlLk6GJQsqaUBKTNV-1" source="7br7j0c2H_9cOm_8u2QU-87">
          <mxGeometry relative="1" as="geometry">
            <mxPoint x="67.5" y="1580" as="targetPoint" />
          </mxGeometry>
        </mxCell>
        <mxCell id="7br7j0c2H_9cOm_8u2QU-87" value="incremend card and i by 1" style="whiteSpace=wrap;html=1;strokeWidth=2;" vertex="1" parent="WIyWlLk6GJQsqaUBKTNV-1">
          <mxGeometry x="227.5" y="1550" width="120" height="60" as="geometry" />
        </mxCell>
        <mxCell id="7br7j0c2H_9cOm_8u2QU-97" value="return False" style="strokeWidth=2;html=1;shape=mxgraph.flowchart.terminator;whiteSpace=wrap;" vertex="1" parent="WIyWlLk6GJQsqaUBKTNV-1">
          <mxGeometry x="17.5" y="2090" width="100" height="60" as="geometry" />
        </mxCell>
        <mxCell id="7br7j0c2H_9cOm_8u2QU-100" style="edgeStyle=none;curved=1;rounded=0;orthogonalLoop=1;jettySize=auto;html=1;fontSize=12;startSize=8;endSize=8;" edge="1" parent="WIyWlLk6GJQsqaUBKTNV-1" source="7br7j0c2H_9cOm_8u2QU-98" target="7br7j0c2H_9cOm_8u2QU-77">
          <mxGeometry relative="1" as="geometry" />
        </mxCell>
        <mxCell id="7br7j0c2H_9cOm_8u2QU-98" value="create empty dictionary card_info" style="whiteSpace=wrap;html=1;strokeWidth=2;" vertex="1" parent="WIyWlLk6GJQsqaUBKTNV-1">
          <mxGeometry x="7.5" y="1225" width="120" height="60" as="geometry" />
        </mxCell>
        <mxCell id="7br7j0c2H_9cOm_8u2QU-103" style="edgeStyle=none;curved=1;rounded=0;orthogonalLoop=1;jettySize=auto;html=1;fontSize=12;startSize=8;endSize=8;" edge="1" parent="WIyWlLk6GJQsqaUBKTNV-1" source="7br7j0c2H_9cOm_8u2QU-101">
          <mxGeometry relative="1" as="geometry">
            <mxPoint x="510" y="1195" as="targetPoint" />
          </mxGeometry>
        </mxCell>
        <mxCell id="7br7j0c2H_9cOm_8u2QU-101" value="card_exists = True" style="whiteSpace=wrap;html=1;strokeWidth=2;" vertex="1" parent="WIyWlLk6GJQsqaUBKTNV-1">
          <mxGeometry x="530" y="1165" width="120" height="60" as="geometry" />
        </mxCell>
        <mxCell id="7br7j0c2H_9cOm_8u2QU-106" value="no" style="edgeStyle=none;curved=1;rounded=0;orthogonalLoop=1;jettySize=auto;html=1;fontSize=12;startSize=8;endSize=8;" edge="1" parent="WIyWlLk6GJQsqaUBKTNV-1" source="7br7j0c2H_9cOm_8u2QU-105" target="7br7j0c2H_9cOm_8u2QU-97">
          <mxGeometry relative="1" as="geometry" />
        </mxCell>
        <mxCell id="7br7j0c2H_9cOm_8u2QU-108" value="" style="edgeStyle=none;curved=1;rounded=0;orthogonalLoop=1;jettySize=auto;html=1;fontSize=12;startSize=8;endSize=8;" edge="1" parent="WIyWlLk6GJQsqaUBKTNV-1" source="7br7j0c2H_9cOm_8u2QU-105" target="7br7j0c2H_9cOm_8u2QU-107">
          <mxGeometry relative="1" as="geometry" />
        </mxCell>
        <mxCell id="7br7j0c2H_9cOm_8u2QU-105" value="card_exists?" style="rhombus;whiteSpace=wrap;html=1;" vertex="1" parent="WIyWlLk6GJQsqaUBKTNV-1">
          <mxGeometry x="28" y="1960" width="80" height="80" as="geometry" />
        </mxCell>
        <mxCell id="7br7j0c2H_9cOm_8u2QU-107" value="return the string that was stored in card_info at key info" style="strokeWidth=2;html=1;shape=mxgraph.flowchart.terminator;whiteSpace=wrap;" vertex="1" parent="WIyWlLk6GJQsqaUBKTNV-1">
          <mxGeometry x="225" y="1960" width="125" height="80" as="geometry" />
        </mxCell>
      </root>
    </mxGraphModel>
  </diagram>
</mxfile>
